<?xml version="1.0" standalone="no"?><svg xmlns="http://www.w3.org/2000/svg" viewBox="0 0 1440 320"><path fill="#BEBDC6" fill-opacity="1" d="M0,224L0,320L36.9,320L36.9,192L73.8,192L73.8,64L110.8,64L110.8,224L147.7,224L147.7,128L184.6,128L184.6,64L221.5,64L221.5,128L258.5,128L258.5,288L295.4,288L295.4,256L332.3,256L332.3,160L369.2,160L369.2,128L406.2,128L406.2,0L443.1,0L443.1,160L480,160L480,224L516.9,224L516.9,192L553.8,192L553.8,288L590.8,288L590.8,64L627.7,64L627.7,32L664.6,32L664.6,128L701.5,128L701.5,256L738.5,256L738.5,32L775.4,32L775.4,96L812.3,96L812.3,64L849.2,64L849.2,192L886.2,192L886.2,192L923.1,192L923.1,32L960,32L960,256L996.9,256L996.9,224L1033.8,224L1033.8,96L1070.8,96L1070.8,224L1107.7,224L1107.7,128L1144.6,128L1144.6,288L1181.5,288L1181.5,256L1218.5,256L1218.5,32L1255.4,32L1255.4,128L1292.3,128L1292.3,96L1329.2,96L1329.2,0L1366.2,0L1366.2,64L1403.1,64L1403.1,256L1440,256L1440,320L1403.1,320L1403.1,320L1366.2,320L1366.2,320L1329.2,320L1329.2,320L1292.3,320L1292.3,320L1255.4,320L1255.4,320L1218.5,320L1218.5,320L1181.5,320L1181.5,320L1144.6,320L1144.6,320L1107.7,320L1107.7,320L1070.8,320L1070.8,320L1033.8,320L1033.8,320L996.9,320L996.9,320L960,320L960,320L923.1,320L923.1,320L886.2,320L886.2,320L849.2,320L849.2,320L812.3,320L812.3,320L775.4,320L775.4,320L738.5,320L738.5,320L701.5,320L701.5,320L664.6,320L664.6,320L627.7,320L627.7,320L590.8,320L590.8,320L553.8,320L553.8,320L516.9,320L516.9,320L480,320L480,320L443.1,320L443.1,320L406.2,320L406.2,320L369.2,320L369.2,320L332.3,320L332.3,320L295.4,320L295.4,320L258.5,320L258.5,320L221.5,320L221.5,320L184.6,320L184.6,320L147.7,320L147.7,320L110.8,320L110.8,320L73.8,320L73.8,320L36.9,320L36.9,320L0,320L0,320Z"></path></svg>